<svg xmlns="http://www.w3.org/2000/svg" width="1400" height="820" viewBox="0 0 1400 820"><rect width="1400" height="820" fill="#f8f7f2"/><rect width="1400" height="86" fill="#fff"/><line x1="0" y1="86" x2="1400" y2="86" stroke="#dfe5e1"/><circle cx="66" cy="43" r="27" fill="#fff" stroke="#c59b55" stroke-width="2"/><circle cx="66" cy="43" r="21" fill="#0f5b7b"/><path d="M54 49c9-1 14-8 15-18 6 7 12 12 18 15-10 2-19 5-27 11z" fill="#e5b64d"/><text x="110" y="38" font-family="Arial" font-size="16" font-weight="700" fill="#0d1d19">КОЛЛЕГИЯ АДВОКАТОВ ОБЛАСТИ ЖЕТІСУ</text><text x="110" y="58" font-family="Arial" font-size="10" letter-spacing="2" fill="#71807a">ОБЛАСТЬ ЖЕТІСУ · РЕСПУБЛИКА КАЗАХСТАН</text><rect y="86" width="1400" height="218" fill="#123e32"/><text x="86" y="150" font-family="Arial" font-size="12" letter-spacing="2" fill="#d9eddf">— О КОЛЛЕГИИ</text><text x="86" y="208" font-family="Georgia" font-size="50" fill="#fff">Цифровой портал Коллегии адвокатов</text><text x="86" y="266" font-family="Georgia" font-size="50" fill="#c59b55">области Жетісу</text><text x="86" y="350" font-family="Georgia" font-size="32" fill="#0d1d19">Официальные контакты</text><rect x="86" y="388" width="1228" height="205" fill="#fff" stroke="#dce2df"/><g font-family="Arial"><text x="118" y="430" font-size="10" letter-spacing="1.5" fill="#66716d">ПРЕДСЕДАТЕЛЬ</text><text x="118" y="458" font-size="18" font-weight="700" fill="#0d1d19">Адильбекова Данипа Медетовна</text><text x="118" y="508" font-size="10" letter-spacing="1.5" fill="#66716d">АДРЕС</text><text x="118" y="536" font-size="16" fill="#0d1d19">г. Талдыкорган, ул. Каблиса жырау, д. 69</text><line x1="690" y1="410" x2="690" y2="570" stroke="#e1e6e3"/><text x="732" y="430" font-size="10" letter-spacing="1.5" fill="#66716d">ТЕЛЕФОН</text><text x="732" y="458" font-size="18" font-weight="700" fill="#0d1d19">8 (7282) 24-40-33</text><text x="732" y="508" font-size="10" letter-spacing="1.5" fill="#66716d">EMAIL</text><text x="732" y="536" font-size="16" fill="#0d1d19">advokatura-tk@bk.ru</text></g><text x="86" y="650" font-family="Georgia" font-size="32" fill="#0d1d19">Региональный фокус</text><g transform="translate(86 680)"><rect width="270" height="78" fill="#fff" stroke="#dce2df"/><text x="20" y="31" font-family="Arial" font-size="13" font-weight="700" fill="#123e32">📍 ОБЛАСТЬ ЖЕТІСУ</text><text x="20" y="55" font-family="Arial" font-size="11" fill="#66716d">Каталог только региона</text><rect x="290" width="270" height="78" fill="#fff" stroke="#dce2df"/><text x="310" y="31" font-family="Arial" font-size="13" font-weight="700" fill="#123e32">✓ ОТКРЫТЫЕ ДАННЫЕ</text><text x="310" y="55" font-family="Arial" font-size="11" fill="#66716d">Источник Минюста РК</text><rect x="580" width="270" height="78" fill="#fff" stroke="#dce2df"/><text x="600" y="31" font-family="Arial" font-size="13" font-weight="700" fill="#123e32">ҚАЗ · РУС</text><text x="600" y="55" font-family="Arial" font-size="11" fill="#66716d">Два языка интерфейса</text><rect x="870" width="358" height="78" fill="#123e32"/><text x="895" y="31" font-family="Arial" font-size="13" font-weight="700" fill="#fff">КАТАЛОГ АДВОКАТОВ</text><text x="895" y="55" font-family="Arial" font-size="11" fill="#d9eddf">Перейти к поиску специалиста →</text></g></svg>