<svg xmlns="http://www.w3.org/2000/svg" width="1400" height="820" viewBox="0 0 1400 820">
<defs><linearGradient id="g" x1="0" y1="0" x2="1" y2="1"><stop stop-color="#0b211b"/><stop offset="1" stop-color="#163f34"/></linearGradient><filter id="s"><feDropShadow dx="0" dy="18" stdDeviation="22" flood-color="#000" flood-opacity=".22"/></filter></defs>
<rect width="1400" height="820" fill="#f8f7f2"/>
<rect width="1400" height="88" fill="#fff"/><line x1="0" y1="88" x2="1400" y2="88" stroke="#dfe5e1"/>
<circle cx="68" cy="44" r="27" fill="#fff" stroke="#c59b55" stroke-width="2"/><circle cx="68" cy="44" r="21" fill="#0f5b7b"/><path d="M56 50c9-1 14-8 15-18 6 7 12 12 18 15-10 2-19 5-27 11z" fill="#e5b64d"/><text x="112" y="38" font-family="Arial" font-size="17" font-weight="700" fill="#0d1d19">КОЛЛЕГИЯ АДВОКАТОВ ОБЛАСТИ ЖЕТІСУ</text><text x="112" y="59" font-family="Arial" font-size="11" letter-spacing="2" fill="#71807a">ОБЛАСТЬ ЖЕТІСУ · РЕСПУБЛИКА КАЗАХСТАН</text>
<text x="690" y="50" font-family="Arial" font-size="13" fill="#34443f">Адвокаты</text><text x="790" y="50" font-family="Arial" font-size="13" fill="#34443f">Получить помощь</text><text x="925" y="50" font-family="Arial" font-size="13" fill="#34443f">О коллегии</text><rect x="1100" y="28" width="82" height="32" rx="16" fill="#123e32"/><text x="1121" y="49" font-family="Arial" font-size="11" fill="#fff">РУС</text>
<rect y="88" width="1400" height="600" fill="url(#g)"/>
<g opacity=".12" stroke="#fff"><path d="M0 190h1400M0 290h1400M0 390h1400M0 490h1400M0 590h1400"/><path d="M100 88v600M250 88v600M400 88v600M550 88v600M700 88v600M850 88v600M1000 88v600M1150 88v600M1300 88v600"/></g>
<text x="92" y="170" font-family="Arial" font-size="13" font-weight="700" letter-spacing="2" fill="#d9eddf">— КОЛЛЕГИЯ АДВОКАТОВ ОБЛАСТИ ЖЕТІСУ</text>
<text x="92" y="250" font-family="Georgia" font-size="62" fill="#fff">Профессиональная защита.</text><text x="92" y="322" font-family="Georgia" font-size="62" font-style="italic" fill="#c59b55">Ближе к людям.</text>
<text x="92" y="375" font-family="Arial" font-size="18" fill="#dbe4e0">Найдите адвоката области Жетісу по ФИО или номеру лицензии,</text><text x="92" y="404" font-family="Arial" font-size="18" fill="#dbe4e0">проверьте опубликованные сведения и выберите маршрут к правовой помощи.</text>
<rect x="92" y="448" width="215" height="58" fill="#c59b55"/><text x="121" y="483" font-family="Arial" font-size="14" font-weight="700" fill="#0d1d19">НАЙТИ АДВОКАТА  →</text>
<g filter="url(#s)"><rect x="875" y="166" width="410" height="390" fill="#fbfaf6"/><rect x="894" y="185" width="372" height="352" fill="none" stroke="#d8bd83"/><text x="920" y="222" font-family="Arial" font-size="11" letter-spacing="1.4" fill="#66716d">КАТАЛОГ АДВОКАТОВ ЖЕТІСУ</text><text x="920" y="270" font-family="Georgia" font-size="34" fill="#0d1d19">Кого вы ищете?</text><text x="920" y="312" font-family="Arial" font-size="10" letter-spacing="1" fill="#66716d">ФИО ИЛИ НОМЕР ЛИЦЕНЗИИ</text><rect x="920" y="326" width="320" height="62" fill="#fff" stroke="#d7ddd9"/><text x="940" y="362" font-family="Arial" font-size="14" fill="#9aa19e">Например, Ахметов или 2100…</text><rect x="920" y="410" width="320" height="58" fill="#123e32"/><text x="944" y="446" font-family="Arial" font-size="13" font-weight="700" fill="#fff">⌕  НАЙТИ В КАТАЛОГЕ</text><text x="920" y="500" font-family="Arial" font-size="11" fill="#66716d">Открытые данные Министерства юстиции РК</text></g>
<rect y="688" width="1400" height="132" fill="#fff"/><text x="92" y="742" font-family="Georgia" font-size="24" fill="#0d1d19">JETISU</text><text x="92" y="771" font-family="Arial" font-size="12" fill="#66716d">Региональный каталог · Қазақша / Русский · Проверяемые данные</text>
<text x="1110" y="755" font-family="Arial" font-size="14" font-weight="700" fill="#123e32">TALDYQORĞAN · 2026</text>
</svg>